<svg width="280" height="280" viewBox="0 0 280 280" fill="none" xmlns="http://www.w3.org/2000/svg">
<g clip-path="url(#clip0_277_205)">
<rect x="72.7998" y="190.453" width="135.2" height="35.3173" rx="10" fill="white"/>
<rect x="40" y="54" width="200" height="119.597" rx="10" fill="white"/>
<path d="M233.548 173.597H46.4516C44.7411 173.595 43.1013 172.907 41.8918 171.684C40.6823 170.461 40.002 168.803 40 167.074V60.5235C40.002 58.794 40.6823 57.1359 41.8918 55.9129C43.1013 54.6899 44.7411 54.002 46.4516 54H233.548C235.259 54.0019 236.899 54.6899 238.108 55.9128C239.318 57.1358 239.998 58.794 240 60.5235V167.074C239.998 168.803 239.318 170.462 238.108 171.684C236.899 172.907 235.259 173.595 233.548 173.597ZM46.4516 55.4497C45.1212 55.4512 43.8458 55.9862 42.905 56.9374C41.9643 57.8886 41.4352 59.1783 41.4337 60.5235V167.074C41.4352 168.419 41.9643 169.709 42.905 170.66C43.8458 171.611 45.1212 172.146 46.4516 172.148H233.548C234.879 172.146 236.154 171.611 237.095 170.66C238.036 169.709 238.565 168.419 238.566 167.074V60.5235C238.565 59.1783 238.036 57.8887 237.095 56.9375C236.154 55.9863 234.879 55.4512 233.548 55.4497H46.4516Z" fill="#3F3D56"/>
<path d="M201.366 226.08H79.1736C77.4585 226.078 75.8143 225.392 74.6015 224.173C73.3888 222.954 72.7066 221.301 72.7046 219.576V197.175C72.7066 195.451 73.3888 193.798 74.6015 192.578C75.8143 191.359 77.4585 190.673 79.1736 190.671H201.366C203.081 190.673 204.725 191.359 205.938 192.578C207.151 193.798 207.833 195.451 207.835 197.175V219.576C207.833 221.301 207.151 222.954 205.938 224.173C204.725 225.392 203.081 226.078 201.366 226.08ZM79.1736 192.117C77.8396 192.118 76.5607 192.652 75.6175 193.6C74.6742 194.548 74.1436 195.834 74.1422 197.175V219.576C74.1436 220.917 74.6742 222.203 75.6175 223.152C76.5607 224.1 77.8396 224.633 79.1736 224.635H201.366C202.7 224.633 203.979 224.1 204.922 223.151C205.865 222.203 206.396 220.917 206.397 219.576V197.175C206.396 195.834 205.865 194.548 204.922 193.6C203.979 192.652 202.7 192.118 201.366 192.117H79.1736Z" fill="#3F3D56"/>
<path d="M86.2438 203.678C85.6298 203.678 85.0217 203.798 84.4542 204.034C83.8868 204.27 83.3711 204.616 82.9367 205.052C82.5023 205.488 82.1577 206.006 81.9225 206.577C81.6874 207.147 81.5664 207.758 81.5664 208.375C81.5664 208.993 81.6874 209.604 81.9225 210.174C82.1577 210.744 82.5023 211.262 82.9367 211.698C83.3711 212.135 83.8868 212.481 84.4542 212.716C85.0217 212.952 85.6298 213.073 86.2438 213.072H166.028C167.266 213.071 168.453 212.575 169.328 211.695C170.203 210.814 170.695 209.62 170.695 208.375C170.695 207.13 170.203 205.937 169.328 205.056C168.453 204.175 167.266 203.68 166.028 203.678H86.2438Z" fill="#CCCCCC"/>
<path d="M108.314 128.568C123.129 128.568 135.14 116.493 135.14 101.599C135.14 86.7039 123.129 74.6294 108.314 74.6294C93.4985 74.6294 81.4883 86.7039 81.4883 101.599C81.4883 116.493 93.4985 128.568 108.314 128.568Z" fill="#E6E6E6"/>
<path d="M211.684 149.222L180.195 94.3888C179.998 94.0461 179.715 93.7615 179.374 93.5637C179.034 93.3658 178.647 93.2616 178.253 93.2616C177.86 93.2616 177.473 93.3658 177.132 93.5637C176.791 93.7615 176.508 94.0461 176.311 94.3888L157.094 127.852L128.446 77.9652C128.193 77.5258 127.83 77.161 127.393 76.9073C126.956 76.6536 126.46 76.52 125.956 76.52C125.451 76.52 124.955 76.6536 124.518 76.9073C124.081 77.161 123.718 77.5258 123.466 77.9652L83.0927 148.268C82.8404 148.707 82.7075 149.206 82.7075 149.713C82.7075 150.22 82.8404 150.719 83.0927 151.158C83.3451 151.598 83.708 151.963 84.1451 152.216C84.5822 152.47 85.078 152.603 85.5826 152.603H209.742C210.136 152.603 210.523 152.499 210.864 152.301C211.205 152.104 211.488 151.819 211.684 151.476C211.881 151.134 211.985 150.745 211.985 150.349C211.985 149.953 211.881 149.565 211.684 149.222Z" fill="#6C63FF"/>
<path d="M65.1572 67.0073H53.6567V78.5693H65.1572V67.0073Z" fill="#3F3D56"/>
<path d="M188.42 219.458C194.742 219.458 199.866 214.317 199.866 207.974C199.866 201.632 194.742 196.49 188.42 196.49C182.099 196.49 176.975 201.632 176.975 207.974C176.975 214.317 182.099 219.458 188.42 219.458Z" fill="#6C63FF"/>
<path d="M190.223 208.355V202.02H186.971V208.355H185.453L187.025 211.087L188.597 213.819L190.17 211.087L191.742 208.355L190.223 208.355Z" fill="white"/>
</g>
<defs>
<clipPath id="clip0_277_205">
<rect width="200" height="172" fill="white" transform="translate(40 54)"/>
</clipPath>
</defs>
</svg>
