<svg width="108" height="16" viewBox="0 0 108 16" fill="none" xmlns="http://www.w3.org/2000/svg">
<path d="M3.60969 12.78H8.20969V15H0.809688V1.04H3.60969V12.78ZM16.4694 15.14C15.1627 15.14 13.9627 14.8333 12.8694 14.22C11.776 13.6067 10.9094 12.76 10.2694 11.68C9.62938 10.5867 9.30938 9.35333 9.30938 7.98C9.30938 6.62 9.62938 5.4 10.2694 4.32C10.9094 3.22667 11.776 2.37333 12.8694 1.76C13.9627 1.14667 15.1627 0.84 16.4694 0.84C17.7894 0.84 18.9894 1.14667 20.0694 1.76C21.1627 2.37333 22.0227 3.22667 22.6494 4.32C23.2894 5.4 23.6094 6.62 23.6094 7.98C23.6094 9.35333 23.2894 10.5867 22.6494 11.68C22.0227 12.76 21.1627 13.6067 20.0694 14.22C18.976 14.8333 17.776 15.14 16.4694 15.14ZM16.4694 12.64C17.3094 12.64 18.0494 12.4533 18.6894 12.08C19.3294 11.6933 19.8294 11.1467 20.1894 10.44C20.5494 9.73333 20.7294 8.91333 20.7294 7.98C20.7294 7.04667 20.5494 6.23333 20.1894 5.54C19.8294 4.83333 19.3294 4.29333 18.6894 3.92C18.0494 3.54667 17.3094 3.36 16.4694 3.36C15.6294 3.36 14.8827 3.54667 14.2294 3.92C13.5894 4.29333 13.0894 4.83333 12.7294 5.54C12.3694 6.23333 12.1894 7.04667 12.1894 7.98C12.1894 8.91333 12.3694 9.73333 12.7294 10.44C13.0894 11.1467 13.5894 11.6933 14.2294 12.08C14.8827 12.4533 15.6294 12.64 16.4694 12.64ZM35.4125 5.24C35.0925 4.65333 34.6525 4.20667 34.0925 3.9C33.5325 3.59333 32.8792 3.44 32.1325 3.44C31.3058 3.44 30.5725 3.62667 29.9325 4C29.2925 4.37333 28.7925 4.90667 28.4325 5.6C28.0725 6.29333 27.8925 7.09333 27.8925 8C27.8925 8.93333 28.0725 9.74667 28.4325 10.44C28.8058 11.1333 29.3192 11.6667 29.9725 12.04C30.6258 12.4133 31.3858 12.6 32.2525 12.6C33.3192 12.6 34.1925 12.32 34.8725 11.76C35.5525 11.1867 35.9992 10.3933 36.2125 9.38H31.4125V7.24H38.9725V9.68C38.7858 10.6533 38.3858 11.5533 37.7725 12.38C37.1592 13.2067 36.3658 13.8733 35.3925 14.38C34.4325 14.8733 33.3525 15.12 32.1525 15.12C30.8058 15.12 29.5858 14.82 28.4925 14.22C27.4125 13.6067 26.5592 12.76 25.9325 11.68C25.3192 10.6 25.0125 9.37333 25.0125 8C25.0125 6.62667 25.3192 5.4 25.9325 4.32C26.5592 3.22667 27.4125 2.38 28.4925 1.78C29.5858 1.16667 30.7992 0.86 32.1325 0.86C33.7058 0.86 35.0725 1.24667 36.2325 2.02C37.3925 2.78 38.1925 3.85333 38.6325 5.24H35.4125ZM47.5241 15.14C46.2174 15.14 45.0174 14.8333 43.9241 14.22C42.8307 13.6067 41.9641 12.76 41.3241 11.68C40.6841 10.5867 40.3641 9.35333 40.3641 7.98C40.3641 6.62 40.6841 5.4 41.3241 4.32C41.9641 3.22667 42.8307 2.37333 43.9241 1.76C45.0174 1.14667 46.2174 0.84 47.5241 0.84C48.8441 0.84 50.0441 1.14667 51.1241 1.76C52.2174 2.37333 53.0774 3.22667 53.7041 4.32C54.3441 5.4 54.6641 6.62 54.6641 7.98C54.6641 9.35333 54.3441 10.5867 53.7041 11.68C53.0774 12.76 52.2174 13.6067 51.1241 14.22C50.0307 14.8333 48.8307 15.14 47.5241 15.14ZM47.5241 12.64C48.3641 12.64 49.1041 12.4533 49.7441 12.08C50.3841 11.6933 50.8841 11.1467 51.2441 10.44C51.6041 9.73333 51.7841 8.91333 51.7841 7.98C51.7841 7.04667 51.6041 6.23333 51.2441 5.54C50.8841 4.83333 50.3841 4.29333 49.7441 3.92C49.1041 3.54667 48.3641 3.36 47.5241 3.36C46.6841 3.36 45.9374 3.54667 45.2841 3.92C44.6441 4.29333 44.1441 4.83333 43.7841 5.54C43.4241 6.23333 43.2441 7.04667 43.2441 7.98C43.2441 8.91333 43.4241 9.73333 43.7841 10.44C44.1441 11.1467 44.6441 11.6933 45.2841 12.08C45.9374 12.4533 46.6841 12.64 47.5241 12.64ZM73.0928 1.04V15H70.2928V9.06H64.3128V15H61.5128V1.04H64.3128V6.78H70.2928V1.04H73.0928ZM78.6488 3.3V6.8H83.3488V9.02H78.6488V12.72H83.9488V15H75.8488V1.02H83.9488V3.3H78.6488ZM93.6933 15L90.6133 9.56H89.2933V15H86.4933V1.04H91.7333C92.8133 1.04 93.7333 1.23333 94.4933 1.62C95.2533 1.99333 95.8199 2.50667 96.1933 3.16C96.5799 3.8 96.7733 4.52 96.7733 5.32C96.7733 6.24 96.5066 7.07333 95.9733 7.82C95.4399 8.55333 94.6466 9.06 93.5933 9.34L96.9333 15H93.6933ZM89.2933 7.46H91.6333C92.3933 7.46 92.9599 7.28 93.3333 6.92C93.7066 6.54667 93.8933 6.03333 93.8933 5.38C93.8933 4.74 93.7066 4.24667 93.3333 3.9C92.9599 3.54 92.3933 3.36 91.6333 3.36H89.2933V7.46ZM102.106 3.3V6.8H106.806V9.02H102.106V12.72H107.406V15H99.3058V1.02H107.406V3.3H102.106Z" fill="black"/>
</svg>
