<svg width="280" height="280" viewBox="0 0 280 280" fill="none" xmlns="http://www.w3.org/2000/svg">
<path d="M251.018 64.8919H157.889V63H115.661V64.8919H22.1481C20.4773 64.8919 18.8748 65.5462 17.6934 66.7108C16.5119 67.8754 15.8481 69.4549 15.8481 71.1019V196.801C15.8481 198.448 16.5119 200.028 17.6934 201.192C18.8748 202.357 20.4773 203.011 22.1481 203.011H251.018C252.689 203.011 254.291 202.357 255.473 201.192C256.654 200.028 257.318 198.448 257.318 196.801V71.1012C257.318 69.4544 256.654 67.875 255.472 66.7106C254.291 65.5461 252.689 64.8919 251.018 64.8919Z" fill="#3F3D56"/>
<path d="M248.871 75.8655H24.2944V200.74H248.871V75.8655Z" fill="#E6E6E6"/>
<path d="M239.423 82.4692H33.8179V190.408H239.423V82.4692Z" fill="white"/>
<path d="M95.7293 158.97H82.9688C80.2073 158.97 77.9688 161.208 77.9688 163.97V176.405C77.9688 179.167 80.2073 181.405 82.9688 181.405H95.7293C98.4907 181.405 100.729 179.167 100.729 176.405V163.97C100.729 161.208 98.4907 158.97 95.7293 158.97Z" fill="#EBEBEB"/>
<path d="M125.631 158.97H112.87C110.109 158.97 107.87 161.208 107.87 163.97V176.405C107.87 179.167 110.109 181.405 112.87 181.405H125.631C128.392 181.405 130.631 179.167 130.631 176.405V163.97C130.631 161.208 128.392 158.97 125.631 158.97Z" fill="#EBEBEB"/>
<path d="M155.532 158.97H142.771C140.01 158.97 137.771 161.208 137.771 163.97V176.405C137.771 179.167 140.01 181.405 142.771 181.405H155.532C158.293 181.405 160.532 179.167 160.532 176.405V163.97C160.532 161.208 158.293 158.97 155.532 158.97Z" fill="#EBEBEB"/>
<path d="M185.433 158.97H172.672C169.911 158.97 167.672 161.208 167.672 163.97V176.405C167.672 179.167 169.911 181.405 172.672 181.405H185.433C188.194 181.405 190.433 179.167 190.433 176.405V163.97C190.433 161.208 188.194 158.97 185.433 158.97Z" fill="#EBEBEB"/>
<g clip-path="url(#clip0_277_121)">
<path d="M97.2369 132.379C96.9762 132.379 96.7214 132.455 96.5047 132.598C96.2879 132.741 96.119 132.944 96.0193 133.181C95.9195 133.418 95.8934 133.68 95.9443 133.932C95.9951 134.184 96.1206 134.415 96.305 134.597C96.4893 134.779 96.7241 134.902 96.9797 134.952C97.2354 135.002 97.5004 134.977 97.7412 134.878C97.982 134.78 98.1879 134.614 98.3327 134.4C98.4775 134.186 98.5548 133.935 98.5548 133.678C98.5548 133.334 98.4159 133.003 98.1687 132.76C97.9216 132.516 97.5864 132.379 97.2369 132.379Z" stroke="black" stroke-miterlimit="10"/>
<path d="M98.2197 134.647L99.1401 135.555" stroke="black" stroke-miterlimit="10" stroke-linecap="round"/>
</g>
<path d="M136.391 72.4602C137.663 72.4602 138.694 71.4437 138.694 70.1897C138.694 68.9357 137.663 67.9192 136.391 67.9192C135.119 67.9192 134.087 68.9357 134.087 70.1897C134.087 71.4437 135.119 72.4602 136.391 72.4602Z" fill="#6C63FF"/>
<path d="M263.622 198.47H241.705V196.913C241.705 196.831 241.672 196.753 241.613 196.695C241.555 196.637 241.475 196.604 241.392 196.604H233.877C233.794 196.604 233.715 196.637 233.656 196.695C233.597 196.753 233.564 196.831 233.564 196.913V198.47H228.868V196.913C228.868 196.831 228.835 196.753 228.776 196.695C228.717 196.637 228.638 196.604 228.555 196.604H221.04C220.957 196.604 220.877 196.637 220.819 196.695C220.76 196.753 220.727 196.831 220.727 196.913V198.47H216.031V196.913C216.031 196.831 215.998 196.753 215.939 196.695C215.88 196.637 215.8 196.604 215.717 196.604H208.203C208.12 196.604 208.04 196.637 207.981 196.695C207.923 196.753 207.89 196.831 207.89 196.913V198.47H203.193V196.913C203.193 196.831 203.16 196.753 203.102 196.695C203.043 196.637 202.963 196.604 202.88 196.604H195.366C195.283 196.604 195.203 196.637 195.144 196.695C195.086 196.753 195.053 196.831 195.053 196.913V198.47H190.356V196.913C190.356 196.831 190.323 196.753 190.264 196.695C190.205 196.637 190.126 196.604 190.043 196.604H182.529C182.446 196.604 182.366 196.637 182.307 196.695C182.248 196.753 182.215 196.831 182.215 196.913V198.47H177.519V196.913C177.519 196.831 177.486 196.753 177.427 196.695C177.368 196.637 177.289 196.604 177.205 196.604H169.693C169.61 196.604 169.53 196.637 169.471 196.695C169.412 196.753 169.379 196.831 169.379 196.913V198.47H164.681V196.913C164.681 196.831 164.648 196.753 164.59 196.695C164.531 196.637 164.451 196.604 164.368 196.604H105.505C105.422 196.604 105.342 196.637 105.283 196.695C105.225 196.753 105.192 196.831 105.192 196.913V198.47H100.495V196.913C100.495 196.831 100.462 196.753 100.403 196.695C100.345 196.637 100.265 196.604 100.182 196.604H92.6675C92.5844 196.604 92.5048 196.637 92.446 196.695C92.3873 196.753 92.3543 196.831 92.3543 196.913V198.47H87.6579V196.913C87.6579 196.831 87.6249 196.753 87.5662 196.695C87.5074 196.637 87.4278 196.604 87.3447 196.604H79.8305C79.7475 196.604 79.6678 196.637 79.6091 196.695C79.5503 196.753 79.5173 196.831 79.5173 196.913V198.47H74.8206V196.913C74.8206 196.831 74.7876 196.753 74.7289 196.695C74.6701 196.637 74.5905 196.604 74.5074 196.604H66.9932C66.9102 196.604 66.8305 196.637 66.7718 196.695C66.713 196.753 66.68 196.831 66.68 196.913V198.47H61.9844V196.913C61.9844 196.831 61.9514 196.753 61.8927 196.695C61.8339 196.637 61.7543 196.604 61.6712 196.604H54.1559C54.0729 196.604 53.9932 196.637 53.9345 196.695C53.8757 196.753 53.8427 196.831 53.8427 196.913V198.47H49.1464V196.913C49.1464 196.831 49.1134 196.753 49.0546 196.695C48.9959 196.637 48.9162 196.604 48.8332 196.604H41.3186C41.2356 196.604 41.1559 196.637 41.0972 196.695C41.0384 196.753 41.0054 196.831 41.0054 196.913V198.47H36.3091V196.913C36.3091 196.831 36.2761 196.753 36.2173 196.695C36.1586 196.637 36.0789 196.604 35.9959 196.604H28.4799C28.3968 196.604 28.3172 196.637 28.2584 196.695C28.1997 196.753 28.1667 196.831 28.1667 196.913V198.47H13.7655C11.7725 198.47 9.86118 199.25 8.45193 200.639C7.04268 202.029 6.25098 203.913 6.25098 205.877V209.226C6.25098 211.191 7.04268 213.075 8.45193 214.464C9.86118 215.853 11.7725 216.633 13.7655 216.633H263.622C265.615 216.633 267.527 215.853 268.936 214.464C270.345 213.075 271.137 211.191 271.137 209.227V205.878C271.137 203.913 270.345 202.029 268.936 200.64C267.527 199.251 265.615 198.47 263.622 198.47V198.47Z" fill="#3F3D56"/>
<rect x="103.973" y="99.3887" width="65.1476" height="15.8778" rx="7.93891" fill="#E2E2E2"/>
<rect x="162" y="131" width="17" height="6" rx="3" fill="#6C63FF"/>
<rect x="85.7168" y="119.853" width="101.301" height="4.23408" rx="2.11704" fill="#E2E2E2"/>
<rect x="92.6597" y="129.88" width="87.7726" height="8.17385" rx="4.08692" stroke="black"/>
<defs>
<clipPath id="clip0_277_121">
<rect width="4.29545" height="4.23408" fill="white" transform="translate(95.3818 131.85)"/>
</clipPath>
</defs>
</svg>
