<svg width="280" height="280" viewBox="0 0 280 280" fill="none" xmlns="http://www.w3.org/2000/svg">
<rect x="33" y="58" width="214" height="164" rx="14" fill="white" stroke="#3F3D56" stroke-width="2"/>
<path d="M89.0507 104.138H75.1216C66.8373 104.138 60.1216 110.854 60.1216 119.138V133.224C60.1216 141.508 66.8373 148.224 75.1216 148.224H89.0507C97.335 148.224 104.051 141.508 104.051 133.224V119.138C104.051 110.854 97.335 104.138 89.0507 104.138Z" fill="#EBEBEB"/>
<path d="M203.267 104.138H189.337C181.053 104.138 174.337 110.854 174.337 119.138V133.224C174.337 141.508 181.053 148.224 189.337 148.224H203.267C211.551 148.224 218.267 141.508 218.267 133.224V119.138C218.267 110.854 211.551 104.138 203.267 104.138Z" fill="#EBEBEB"/>
<path d="M147.848 102.443H130.54C122.256 102.443 115.54 109.158 115.54 117.443V134.92C115.54 143.204 122.256 149.92 130.54 149.92H147.848C156.133 149.92 162.848 143.204 162.848 134.92V117.443C162.848 109.158 156.133 102.443 147.848 102.443Z" fill="#6C63FF"/>
<path d="M89.0507 158.059H75.1216C66.8373 158.059 60.1216 164.775 60.1216 173.059V187.145C60.1216 195.429 66.8373 202.145 75.1216 202.145H89.0507C97.335 202.145 104.051 195.429 104.051 187.145V173.059C104.051 164.775 97.335 158.059 89.0507 158.059Z" fill="#EBEBEB"/>
<path d="M146.159 158.059H132.229C123.945 158.059 117.229 164.775 117.229 173.059V187.145C117.229 195.429 123.945 202.145 132.229 202.145H146.159C154.443 202.145 161.159 195.429 161.159 187.145V173.059C161.159 164.775 154.443 158.059 146.159 158.059Z" fill="#EBEBEB"/>
<path d="M203.267 158.059H189.337C181.053 158.059 174.337 164.775 174.337 173.059V187.145C174.337 195.429 181.053 202.145 189.337 202.145H203.267C211.551 202.145 218.267 195.429 218.267 187.145V173.059C218.267 164.775 211.551 158.059 203.267 158.059Z" fill="#EBEBEB"/>
<rect x="41.5361" y="64.4607" width="27.0333" height="15.2606" rx="7.63028" fill="#E2E2E2"/>
<rect x="222.66" y="64.4607" width="15.2062" height="15.2606" rx="7.60312" fill="#E2E2E2"/>
<path d="M206.609 73.6171C207.448 73.6171 208.129 72.9338 208.129 72.091C208.129 71.2482 207.448 70.5649 206.609 70.5649C205.769 70.5649 205.088 71.2482 205.088 72.091C205.088 72.9338 205.769 73.6171 206.609 73.6171Z" fill="#E6E6E6"/>
<path d="M211.339 73.6171C212.179 73.6171 212.86 72.9338 212.86 72.091C212.86 71.2482 212.179 70.5649 211.339 70.5649C210.5 70.5649 209.819 71.2482 209.819 72.091C209.819 72.9338 210.5 73.6171 211.339 73.6171Z" fill="#E6E6E6"/>
<path d="M216.07 73.6171C216.91 73.6171 217.591 72.9338 217.591 72.091C217.591 71.2482 216.91 70.5649 216.07 70.5649C215.231 70.5649 214.55 71.2482 214.55 72.091C214.55 72.9338 215.231 73.6171 216.07 73.6171Z" fill="#E6E6E6"/>
</svg>
